<?xml version="1.0" encoding="UTF-8"?>
<svg id="Layer_2" data-name="Layer 2" xmlns="http://www.w3.org/2000/svg" xmlns:xlink="http://www.w3.org/1999/xlink" viewBox="0 0 56.88 25.2">
  <defs>
    <style>
      .cls-1 {
        fill: url(#linear-gradient);
      }
    </style>
    <linearGradient id="linear-gradient" x1="28.95" y1="1.76" x2="28.95" y2="26.96" gradientTransform="translate(-.65 -1.53) rotate(-.46)" gradientUnits="userSpaceOnUse">
      <stop offset="0" stop-color="#ff8621"/>
      <stop offset="1" stop-color="#ed6663"/>
    </linearGradient>
  </defs>
  <g id="Layer_1-2" data-name="Layer 1">
    <path class="cls-1" d="M19.59,11.44c-.71,0-1.13.44-1.26,1.28l2.49-.02c-.08-.65-.45-1.27-1.23-1.26ZM19.59,11.44c-.71,0-1.13.44-1.26,1.28l2.49-.02c-.08-.65-.45-1.27-1.23-1.26ZM28.31,0C13.19.12-.07,7.95,0,16.7c.04,4.59,2.38,7.82,7.3,7.78,3.33-.03,4.65-2.63,9.9-2.67s7.36,3.42,11.11,3.39c.07,0,.14-.01.2-.03.06.02.13.03.2.03,3.75-.03,5.8-3.53,11.05-3.57s6.61,2.54,9.94,2.51c4.92-.04,7.21-3.31,7.18-7.9C56.81,7.49,43.43-.12,28.31,0ZM42.94,8.16c0-.06.04-.11.1-.11h1.58c.06-.01.11.04.11.1v1.38c.01.06-.04.11-.1.11h-1.58c-.06.01-.1-.04-.1-.1v-1.38ZM16.58,16.54l-1.88.02c-.06,0-.13-.04-.17-.09l-1.06-1.74-.82-1.22h-1.18s.05,2.97.05,2.97c0,.06-.05.11-.1.11h-1.62c-.06.01-.11-.04-.11-.1l.02-4.02-.08-4.03c0-.06.05-.11.11-.11l3.35-.03c2.07-.02,3.27.85,3.28,2.57,0,1.22-.65,2.07-1.82,2.42l2.08,3.15s0,.09-.04.09ZM22.64,13.81l-4.35.03c.08,1.14.53,1.65,1.38,1.64.59,0,1.02-.28,1.17-.93,0-.06.07-.1.13-.1h1.49c.06-.01.1.03.09.09-.14,1.11-1.19,2.11-2.89,2.12-2.04.02-3.14-1.3-3.16-3.14-.02-1.94,1.12-3.23,3.06-3.24s3.12,1.31,3.17,3.42c0,.06-.05.11-.1.11ZM28.88,16.44h-1.59c-.05.01-.1-.04-.1-.1v-2.48s0-1.25,0-1.25c0-.66-.4-1.08-.93-1.07-.64,0-1.32.6-1.3,1.89v.45s.04,2.48.04,2.48c0,.06-.05.11-.1.11h-1.61c-.06.01-.11-.04-.11-.1l.02-2.81-.03-3.06c0-.06.04-.1.1-.1h1.5c.06-.01.11.03.11.09l-.03.67c.42-.54,1.1-.92,1.95-.93,1.29-.01,2.13.85,2.14,2.34v1.27s.06,2.48.06,2.48c0,.06-.04.11-.1.11ZM33.06,11.46c0,.06-.04.11-.1.11h-1.36s.05,4.84.05,4.84h-1.77s-.03-4.82-.03-4.82h-.68c-.06,0-.11-.04-.11-.1v-1.04c0-.06.04-.1.1-.1h.68s-.02-1.43-.02-1.43c0-.06.05-.11.1-.11h1.58c.05-.01.1.04.1.1v1.42s1.35-.01,1.35-.01c.06,0,.1.04.1.1v1.04ZM42.37,16.33h-1.59c-.06.01-.11-.04-.11-.1l.02-2.07v-1.66c-.02-.73-.32-1.08-.8-1.07s-1.07.65-1.06,1.89v.86s.06,2.07.06,2.07c0,.06-.05.11-.11.11h-1.59c-.06.01-.11-.04-.11-.1l.02-2.07v-1.66c-.02-.73-.31-1.08-.8-1.07s-1.07.65-1.06,1.89v.86s.06,2.07.06,2.07c0,.06-.05.11-.11.11h-1.62c-.06.01-.1-.04-.1-.1v-2.07s-.03-3.8-.03-3.8c0-.06.05-.1.11-.1h1.51c.06-.01.1.03.1.09l-.02.67c.42-.6.96-.92,1.74-.92.85,0,1.45.35,1.74,1.13.51-.92,1.13-1.15,1.85-1.15,1.23,0,1.94.72,1.95,2.34v1.68s.06,2.07.06,2.07c0,.06-.05.11-.11.11ZM44.81,16.2c0,.06-.04.11-.1.11h-1.6c-.06.01-.1-.04-.1-.1v-2.93s-.05-2.94-.05-2.94c0-.06.04-.1.1-.1h1.6c.06-.01.1.03.1.09v2.94s.05,2.93.05,2.93ZM47.21,16.18c0,.06-.05.11-.11.11h-1.54c-.06.01-.11-.04-.11-.1l.02-4.02-.08-4.03c0-.06.05-.11.11-.11h1.54c.06-.01.11.04.11.1l-.02,4.03.08,4.02ZM19.59,11.44c-.71,0-1.13.44-1.26,1.28l2.49-.02c-.08-.65-.45-1.27-1.23-1.26ZM13.16,9.6h-1.71s-.02,2.59-.02,2.59h1.8c.76-.02,1.4-.39,1.39-1.28s-.54-1.33-1.46-1.32Z"/>
  </g>
</svg>